<?xml version="1.0" encoding="utf-8"?>
<!-- Generator: Adobe Illustrator 15.0.0, SVG Export Plug-In  -->
<!DOCTYPE svg PUBLIC "-//W3C//DTD SVG 1.1//EN" "http://www.w3.org/Graphics/SVG/1.1/DTD/svg11.dtd" [
	<!ENTITY ns_flows "http://ns.adobe.com/Flows/1.0/">
]>
<svg version="1.1"
	 xmlns="http://www.w3.org/2000/svg" xmlns:xlink="http://www.w3.org/1999/xlink" xmlns:a="http://ns.adobe.com/AdobeSVGViewerExtensions/3.0/"
	 x="0px" y="0px" width="164px" height="50px" viewBox="-1 -6.844 164 50"
	 overflow="visible" enable-background="new -1 -6.844 164 50" xml:space="preserve">
<defs>
</defs>
<path id="XMLID_6_" fill-rule="evenodd" clip-rule="evenodd" fill="#003660" d="M8.294,6.552L13.89,8.45l-0.894,4.487l-7.757-2.629
	l1.908-3.302C7.43,6.517,7.807,6.387,8.294,6.552z"/>
<path id="XMLID_5_" fill-rule="evenodd" clip-rule="evenodd" fill="#005B88" d="M0.386,20.73l4.885-4.285l3.784,3.319l-6.772,5.942
	l-2.094-3.632C-0.124,21.535-0.042,21.105,0.386,20.73z"/>
<path id="XMLID_4_" fill-rule="evenodd" clip-rule="evenodd" fill="#0098D8" d="M9.149,35.381l-1.396-7.012l5.243-1.777l1.937,9.72
	h-4.612C9.635,36.312,9.27,35.993,9.149,35.381z"/>
<path id="XMLID_3_" fill-rule="evenodd" clip-rule="evenodd" fill="#00B4EF" d="M27.136,35.09l-7.447-2.525l1.19-5.973l10.324,3.501
	l-2.539,4.394C28.287,35.139,27.788,35.312,27.136,35.09z"/>
<path id="XMLID_2_" fill-rule="evenodd" clip-rule="evenodd" fill="#67CCF2" d="M36.358,18.478l-6.502,5.705l-5.036-4.418
	l9.014-7.91l2.789,4.835C37.037,17.407,36.927,17.979,36.358,18.478z"/>
<path id="XMLID_1_" fill-rule="evenodd" clip-rule="evenodd" fill="#87D5F7" d="M26,1.238l1.858,9.332l-6.979,2.366L18.301,0h6.14
	C25.352,0,25.837,0.424,26,1.238z"/>
<path fill="#003660" d="M59.868,26.807c-1.847,0.98-3.667,1.343-5.373,1.343c-5.681,0-8.984-3.89-8.984-9.292
	c0-5.345,3.751-9.6,9.348-9.6c1.987,0,3.667,0.448,4.647,0.98v2.323c-1.316-0.7-2.744-1.176-4.59-1.176
	c-4.254,0-6.773,3.247-6.773,7.36c0,4.282,2.546,7.276,6.604,7.276c1.735,0,3.135-0.503,4.422-1.203L59.868,26.807z"/>
<path fill="#003660" d="M64.09,9.427h9.32l-0.728,2.043h-6.102v5.933h6.017v2.072h-6.017v6.352h6.941v2.043H64.09V9.427z"/>
<path fill="#003660" d="M77.633,9.427h2.408l8.34,10.859c1.091,1.399,1.875,2.519,2.491,3.442h0.055
	c-0.055-1.007-0.055-1.903-0.055-3.218V9.427h2.491V27.87H91.18l-8.648-11.278c-1.035-1.343-1.791-2.407-2.435-3.331h-0.056
	c0.056,0.867,0.083,1.763,0.083,3.079v11.53h-2.492V9.427z"/>
<path fill="#003660" d="M105.589,20.37l-0.728-2.044h7.668v8.396c-1.372,0.7-3.693,1.428-6.241,1.428
	c-5.682,0-9.292-3.834-9.292-9.208c0-5.653,3.889-9.685,9.74-9.685c2.126,0,3.946,0.504,5.122,0.98v2.323
	c-1.344-0.672-2.996-1.176-4.982-1.176c-4.646,0-7.249,3.022-7.249,7.332c0,4.479,2.659,7.305,6.913,7.305
	c1.427,0,2.714-0.278,3.527-0.671V20.37H105.589z"/>
<path fill="#003660" d="M122.376,9.37h1.764l7.164,18.5h-2.658l-1.82-4.841h-7.136l-1.764,4.841h-2.603L122.376,9.37z
	 M126.071,20.985l-1.735-4.814c-0.532-1.566-0.811-2.406-1.036-3.078h-0.055c-0.197,0.672-0.504,1.54-1.063,3.107l-1.735,4.786
	H126.071z"/>
<path fill="#003660" d="M141.152,20.37l-0.727-2.044h7.667v8.396c-1.372,0.7-3.693,1.428-6.241,1.428
	c-5.682,0-9.292-3.834-9.292-9.208c0-5.653,3.89-9.685,9.74-9.685c2.126,0,3.945,0.504,5.12,0.98v2.323
	c-1.342-0.672-2.994-1.176-4.981-1.176c-4.646,0-7.248,3.022-7.248,7.332c0,4.479,2.658,7.305,6.913,7.305
	c1.426,0,2.714-0.278,3.525-0.671V20.37H141.152z"/>
<path fill="#003660" d="M152.567,9.427h9.32l-0.728,2.043h-6.102v5.933h6.017v2.072h-6.017v6.352H162v2.043h-9.433V9.427z"/>
</svg>
