<?xml version="1.0" encoding="utf-8"?>
<!-- Generator: Adobe Illustrator 15.1.0, SVG Export Plug-In . SVG Version: 6.00 Build 0)  -->
<!DOCTYPE svg PUBLIC "-//W3C//DTD SVG 1.1//EN" "http://www.w3.org/Graphics/SVG/1.1/DTD/svg11.dtd">
<svg version="1.1" id="Layer_1" xmlns="http://www.w3.org/2000/svg" xmlns:xlink="http://www.w3.org/1999/xlink" x="0px" y="0px"
	 width="235.665px" height="258.741px" viewBox="0 0 235.665 258.741" enable-background="new 0 0 235.665 258.741"
	 xml:space="preserve">
<g>
	<defs>
		<rect id="SVGID_1_" width="235.665" height="258.741"/>
	</defs>
	<clipPath id="SVGID_2_">
		<use xlink:href="#SVGID_1_"  overflow="visible"/>
	</clipPath>
	<path clip-path="url(#SVGID_2_)" fill="#0073BD" d="M38.595,49.93c-1.656,0.833-5.029,1.833-10.018,1.833
		c-13.83,0-21.772-9.515-21.772-21.653c0-14.443,10.125-22.084,22.687-22.084c4.876,0,7.452,0.93,9.103,1.809l-1.533,8.643
		c-1.85-0.818-3.803-1.567-7.186-1.567c-5.985,0-12.348,3.56-12.348,13.033c0,8.489,5.07,12.964,12.399,12.964
		c2.888,0,4.86-0.549,7.135-1.597L38.595,49.93z"/>
	<path clip-path="url(#SVGID_2_)" fill="#0073BD" d="M85.651,38.132c0.352,3.963,3.629,6.061,8.693,6.102
		c3.057,0.028,6.604-0.851,8.97-2.254l1.411,7.301c-3.553,1.774-7.626,2.482-11.761,2.482c-11.156,0-17.136-6.722-17.136-16.994
		c0-9.94,6.429-16.35,16.068-16.35c9.92,0,14.367,7.311,14.367,16.465c0,0.958-0.113,2.537-0.225,3.248H85.651 M96.915,31.475
		c0-2.297-1.125-6.314-5.458-6.314c-3.813,0-5.597,3.276-5.868,6.314H96.915z"/>
	<polygon clip-path="url(#SVGID_2_)" fill="#0073BD" points="117.282,50.456 106.928,19.72 117.267,19.72 122.894,41.461 
		123.078,41.461 128.705,19.72 139.045,19.72 128.694,50.456 	"/>
	<path clip-path="url(#SVGID_2_)" fill="#0073BD" d="M141.702,29.826c0-4.523-0.145-7.464-0.332-10.102h8.825l0.267,5.705h0.234
		c1.55-4.516,4.509-6.239,7.56-6.407c1.452-0.087,2.228,0.018,3.133,0.189v8.992c-0.859-0.168-2.56-0.373-3.761-0.258
		c-3.609,0.33-5.791,2.946-6.4,5.978c-0.127,0.613-0.188,1.323-0.188,2.131v14.402h-9.338V29.826z"/>
	<path clip-path="url(#SVGID_2_)" fill="#0073BD" d="M194.313,35.088c0,10.061-6.066,16.674-15.899,16.674
		c-9.834,0-15.911-6.613-15.911-16.674c0-10.079,6.077-16.674,15.911-16.674C188.247,18.414,194.313,25.009,194.313,35.088
		 M184.603,35.088c0-5.006-1.723-9.355-6.188-9.355c-4.478,0-6.185,4.349-6.185,9.355c0,5.009,1.707,9.353,6.185,9.353
		C182.88,44.441,184.603,40.097,184.603,35.088"/>
	<path clip-path="url(#SVGID_2_)" fill="#0073BD" d="M198.484,29.52c0-3.831-0.145-7.111-0.344-9.795h8.831l0.2,4.291h0.194
		c1.217-1.994,4.457-5.275,9.501-5.275c6.184,0,10.212,4.207,10.212,13.26v18.454h-9.364V33.403c0-3.946-1.354-6.646-4.742-6.646
		c-2.601,0-4.212,1.822-4.813,3.574c-0.227,0.64-0.313,1.514-0.313,2.398v17.725h-9.361V29.52z"/>
	<path clip-path="url(#SVGID_2_)" fill="#0073BD" d="M61.558,18.738c-3.726,0-7.329,1.684-9.159,4.4h-0.117V8.176l-9.369,3.246
		v39.037h9.369V32.213c0-2.627,1.712-5.458,4.993-5.458c3.512,0,4.871,2.764,4.871,6.776v16.928h9.378V32.241
		C71.524,22.952,67.533,18.738,61.558,18.738"/>
</g>
<g>
	<defs>
		<polygon id="SVGID_3_" points="7.153,131.928 117.129,95.279 7.153,58.629 		"/>
	</defs>
	<clipPath id="SVGID_4_">
		<use xlink:href="#SVGID_3_"  overflow="visible"/>
	</clipPath>
	
		<linearGradient id="SVGID_5_" gradientUnits="userSpaceOnUse" x1="0" y1="258.7412" x2="1" y2="258.7412" gradientTransform="matrix(89.4141 64.9631 -64.9631 89.4141 16817.375 -23078.6055)">
		<stop  offset="0" style="stop-color:#00A9EB"/>
		<stop  offset="0.01" style="stop-color:#00A9EB"/>
		<stop  offset="0.3" style="stop-color:#00A8EA"/>
		<stop  offset="0.6" style="stop-color:#0081C8"/>
		<stop  offset="1" style="stop-color:#0062B0"/>
	</linearGradient>
	<polygon clip-path="url(#SVGID_4_)" fill="url(#SVGID_5_)" points="-27.703,106.604 79.133,184.225 151.984,83.954 45.149,6.333 	
		"/>
</g>
<g>
	<defs>
		<polygon id="SVGID_6_" points="117.129,95.279 7.178,131.928 117.129,168.585 227.069,131.928 227.069,58.639 		"/>
	</defs>
	<clipPath id="SVGID_7_">
		<use xlink:href="#SVGID_6_"  overflow="visible"/>
	</clipPath>
	
		<linearGradient id="SVGID_8_" gradientUnits="userSpaceOnUse" x1="0" y1="258.7412" x2="1" y2="258.7412" gradientTransform="matrix(42.8148 -131.7706 131.7706 42.8148 -33993.4727 -10914.6729)">
		<stop  offset="0" style="stop-color:#0066B3"/>
		<stop  offset="0.0302" style="stop-color:#0075C0"/>
		<stop  offset="0.0909" style="stop-color:#008ED5"/>
		<stop  offset="0.1544" style="stop-color:#00A0E3"/>
		<stop  offset="0.2219" style="stop-color:#00ABEC"/>
		<stop  offset="0.3" style="stop-color:#00AEEF"/>
		<stop  offset="0.5" style="stop-color:#00AEEF"/>
		<stop  offset="0.5929" style="stop-color:#00A7E9"/>
		<stop  offset="0.725" style="stop-color:#0095DA"/>
		<stop  offset="0.8797" style="stop-color:#0076C1"/>
		<stop  offset="0.95" style="stop-color:#0066B3"/>
		<stop  offset="1" style="stop-color:#0066B3"/>
	</linearGradient>
	<polygon clip-path="url(#SVGID_7_)" fill="url(#SVGID_8_)" points="206.071,233.21 259.381,69.138 28.176,-5.985 -25.134,158.086 	
		"/>
</g>
<g>
	<defs>
		<path id="SVGID_9_" d="M168.472,147.608c0,0,0.004,0,0.009-0.003C168.477,147.606,168.475,147.607,168.472,147.608
			 M168.48,147.605C168.48,147.605,168.48,147.605,168.48,147.605S168.48,147.605,168.48,147.605 M168.483,147.604
			c-0.001,0-0.002,0.001-0.002,0.001c0.004-0.001,0.007-0.002,0.01-0.003C168.488,147.604,168.485,147.604,168.483,147.604
			 M168.491,147.603c0.003-0.002,0.007-0.004,0.007-0.004S168.495,147.6,168.491,147.603 M77.484,111.293
			c-2.79,0.974-5.591,1.948-7.314,2.538c-1.82,0.624-2.325,0.792-2.438,0.833c0.011-0.005,0.015-0.005-0.005,0h-0.005
			c-0.015,0.005-0.033,0.014-0.007,0.007c-0.003,0.002-0.008,0.003-0.013,0.003c-0.062,0.02-0.057,0.02-0.046,0.02
			c-0.078,0.024-0.471,0.16-2.04,0.699c-2.852,0.978-1.461,0.549-4.865,1.721c-2.919,0.992-5.831,1.994-8.75,2.978
			c-2.309,0.784-4.908,1.657-5.983,2.023v0.001c6.72,2.201,13.44,4.393,20.165,6.585c6.716,2.192,13.437,4.385,20.163,6.583
			c6.716,2.193,13.437,4.39,20.163,6.582c6.716,2.195,13.44,4.389,20.162,6.581c6.726,2.197,13.444,4.389,20.159,6.587h0.006
			c1.075-0.377,3.673-1.244,5.982-2.029c2.913-0.982,5.837-1.979,8.754-2.979c3.398-1.165,2.015-0.744,4.855-1.72
			c1.538-0.529,1.948-0.673,2.044-0.698c0-0.004,0.017-0.01,0.046-0.015c0.021-0.011,0.031-0.016,0.036-0.016
			c0.133-0.049,0.644-0.225,2.433-0.833c1.723-0.59,4.528-1.57,7.313-2.543c2.726-0.943,5.439-1.883,7.114-2.471
			c-6.709-2.192-13.43-4.385-20.157-6.578c-6.72-2.192-13.44-4.385-20.162-6.584c-6.721-2.193-13.44-4.391-20.167-6.584
			c-6.721-2.192-13.441-4.385-20.168-6.577c-6.71-2.198-13.436-4.39-20.157-6.586C82.916,109.4,80.207,110.34,77.484,111.293"/>
	</defs>
	<clipPath id="SVGID_10_">
		<use xlink:href="#SVGID_9_"  overflow="visible"/>
	</clipPath>
	<g clip-path="url(#SVGID_10_)">
		<g>
			<defs>
				<rect id="SVGID_11_" x="46.018" y="108.822" width="139.396" height="46.212"/>
			</defs>
			<clipPath id="SVGID_12_">
				<use xlink:href="#SVGID_11_"  overflow="visible"/>
			</clipPath>
			<g transform="matrix(1 0 0 1 -1.828594e-006 5.586044e-007)" clip-path="url(#SVGID_12_)">
				
					<image overflow="visible" width="291" height="97" xlink:href="1BBB09F9.jpg"  transform="matrix(0.48 0 0 0.48 46.0181 108.8223)">
				</image>
			</g>
		</g>
	</g>
</g>
<g>
	<defs>
		<polygon id="SVGID_13_" points="7.153,143.806 7.159,217.129 117.119,180.464 7.154,143.805 		"/>
	</defs>
	<clipPath id="SVGID_14_">
		<use xlink:href="#SVGID_13_"  overflow="visible"/>
	</clipPath>
	
		<linearGradient id="SVGID_15_" gradientUnits="userSpaceOnUse" x1="-4.882813e-004" y1="258.7402" x2="0.9995" y2="258.7402" gradientTransform="matrix(89.4232 64.9698 -64.9698 89.4232 16819.0684 -22995.7539)">
		<stop  offset="0" style="stop-color:#ED1A3A"/>
		<stop  offset="0.25" style="stop-color:#E11837"/>
		<stop  offset="0.4" style="stop-color:#CF3141"/>
		<stop  offset="0.575" style="stop-color:#B33848"/>
		<stop  offset="1" style="stop-color:#9B2E3C"/>
	</linearGradient>
	<polygon clip-path="url(#SVGID_14_)" fill="url(#SVGID_15_)" points="-27.715,191.796 79.126,269.421 151.987,169.138 
		45.146,91.512 	"/>
</g>
<g>
	<defs>
		<polygon id="SVGID_16_" points="117.098,180.448 7.173,217.119 117.119,253.774 227.074,217.119 227.074,143.806 227.072,143.805 
					"/>
	</defs>
	<clipPath id="SVGID_17_">
		<use xlink:href="#SVGID_16_"  overflow="visible"/>
	</clipPath>
	
		<linearGradient id="SVGID_18_" gradientUnits="userSpaceOnUse" x1="0" y1="258.7412" x2="1" y2="258.7412" gradientTransform="matrix(42.8201 -131.7872 131.7872 42.8201 -33997.793 -10830.8066)">
		<stop  offset="0" style="stop-color:#9B2E3C"/>
		<stop  offset="0.0513" style="stop-color:#AD2A3C"/>
		<stop  offset="0.1512" style="stop-color:#C9233B"/>
		<stop  offset="0.2513" style="stop-color:#DD1E3A"/>
		<stop  offset="0.3511" style="stop-color:#E91B3A"/>
		<stop  offset="0.45" style="stop-color:#ED1A3A"/>
		<stop  offset="0.6989" style="stop-color:#C2243B"/>
		<stop  offset="0.95" style="stop-color:#9B2E3C"/>
		<stop  offset="1" style="stop-color:#9B2E3C"/>
	</linearGradient>
	<polygon clip-path="url(#SVGID_17_)" fill="url(#SVGID_18_)" points="206.075,318.401 259.394,154.306 28.171,79.177 
		-25.146,243.273 	"/>
</g>
<g>
	<defs>
		<path id="SVGID_19_" d="M79.707,196.292c-2.908,1.019-5.867,2.045-7.657,2.663c-3.408,1.164-2.498,0.842-2.8,0.95
			c-0.306,0.114,0.598-0.215-2.806,0.961c-3.409,1.166-1.36,0.512-3.016,1.053c-0.638,0.215-1.568,0.513-3.73,1.248
			c-1.651,0.557-4.533,1.573-7.007,2.422c-2.616,0.909-5.605,1.916-6.679,2.278v0.001c6.72,2.193,13.446,4.391,20.166,6.583
			c6.716,2.192,13.437,4.385,20.168,6.577c6.716,2.203,13.437,4.391,20.163,6.588c6.716,2.198,13.437,4.386,20.162,6.583
			c6.717,2.187,13.437,4.389,20.149,6.581h0.016c1.085-0.371,4.063-1.37,6.677-2.277c2.463-0.849,5.361-1.864,7.007-2.428
			c2.157-0.73,3.087-1.027,3.736-1.242c1.651-0.547-0.404,0.107,3.01-1.053c3.405-1.165,2.499-0.847,2.796-0.961
			c0.307-0.107-0.597,0.215,2.806-0.955c1.794-0.613,4.753-1.651,7.651-2.652c2.617-0.911,5.173-1.8,6.783-2.352
			c-6.722-2.198-13.442-4.392-20.164-6.583c-6.72-2.193-13.44-4.385-20.167-6.583c-6.72-2.197-13.441-4.395-20.156-6.581
			c-6.727-2.199-13.442-4.386-20.163-6.584c-6.731-2.198-13.442-4.39-20.163-6.583C84.869,194.498,82.308,195.388,79.707,196.292"/>
	</defs>
	<clipPath id="SVGID_20_">
		<use xlink:href="#SVGID_19_"  overflow="visible"/>
	</clipPath>
	<g clip-path="url(#SVGID_20_)">
		<g>
			<defs>
				<rect id="SVGID_21_" x="46.012" y="193.946" width="141.29" height="46.834"/>
			</defs>
			<clipPath id="SVGID_22_">
				<use xlink:href="#SVGID_21_"  overflow="visible"/>
			</clipPath>
			<g transform="matrix(1 0 0 1 -1.828361e-006 2.058892e-006)" clip-path="url(#SVGID_22_)">
				
					<image overflow="visible" width="295" height="98" xlink:href="1BBB09FB.jpg"  transform="matrix(0.48 0 0 0.48 46.0122 193.9463)">
				</image>
			</g>
		</g>
	</g>
</g>
</svg>
