<?xml version="1.0" encoding="utf-8"?>
<!-- Generator: Adobe Illustrator 15.1.0, SVG Export Plug-In . SVG Version: 6.00 Build 0)  -->
<!DOCTYPE svg PUBLIC "-//W3C//DTD SVG 1.1//EN" "http://www.w3.org/Graphics/SVG/1.1/DTD/svg11.dtd">
<svg version="1.1" id="Layer_1" xmlns="http://www.w3.org/2000/svg" xmlns:xlink="http://www.w3.org/1999/xlink" x="0px" y="0px"
	 width="195px" height="36px" viewBox="-305.5 396.5 195 36" enable-background="new -305.5 396.5 195 36" xml:space="preserve">
<g>
	<path d="M-293.468,420.236v-4.764h2.875c0.719,0,1.527,0,2.066,0.45c0.629,0.449,0.989,1.259,0.989,1.978s-0.27,1.348-0.809,1.797
		s-1.348,0.539-2.066,0.539H-293.468L-293.468,420.236z M-293.468,414.307v-4.225h2.875c0.629,0,1.168,0,1.707,0.27
		c0.629,0.36,0.988,0.988,0.988,1.707c0,0.631-0.359,1.35-0.809,1.709c-0.629,0.539-1.527,0.539-2.336,0.539H-293.468
		L-293.468,414.307z M-290.324,421.494c1.168,0,2.156-0.09,3.055-0.809c0.898-0.72,1.257-1.617,1.257-2.695
		c0-1.617-1.078-2.876-2.605-3.235l0,0c1.348-0.358,2.246-1.438,2.246-2.786c0-1.076-0.539-1.977-1.348-2.516
		c-0.898-0.539-1.617-0.629-2.605-0.629h-4.672v12.67H-290.324L-290.324,421.494z"/>
	<path d="M-283.046,416.732c0-0.81,0.09-1.709,0.449-2.338c0.449-0.809,1.258-1.348,2.157-1.348c0.808,0,1.617,0.449,2.066,1.078
		c0.449,0.809,0.539,1.708,0.539,2.605c0,0.81-0.09,1.617-0.449,2.427c-0.449,0.809-1.168,1.348-2.156,1.348
		c-0.899,0-1.708-0.448-2.067-1.168C-282.956,418.529-283.046,417.541-283.046,416.732L-283.046,416.732z M-284.663,416.732
		c0,2.426,1.258,4.94,4.043,4.94c2.875,0,4.402-2.336,4.402-4.94c0-2.428-1.348-4.854-4.133-4.854
		C-283.136,411.879-284.663,414.126-284.663,416.732L-284.663,416.732z"/>
	<path d="M-273.252,416.732c0-0.81,0.09-1.709,0.449-2.338c0.36-0.809,1.258-1.348,2.157-1.348c0.809,0,1.527,0.449,1.977,1.078
		c0.539,0.809,0.629,1.708,0.629,2.605c0,0.81-0.09,1.617-0.449,2.427c-0.449,0.809-1.258,1.348-2.156,1.348
		s-1.707-0.448-2.066-1.168C-273.162,418.529-273.252,417.541-273.252,416.732L-273.252,416.732z M-274.87,416.732
		c0,2.426,1.258,4.94,4.043,4.94c2.875,0,4.313-2.336,4.313-4.94c0-2.428-1.348-4.854-4.043-4.854
		C-273.342,411.879-274.87,414.126-274.87,416.732L-274.87,416.732z"/>
	<polygon points="-258.696,412.958 -263.818,420.326 -258.696,420.326 -258.696,421.494 -265.615,421.494 -265.615,420.326 
		-260.583,413.229 -265.166,413.229 -265.166,412.148 -258.696,412.148 	"/>
	<polygon points="-250.52,406.129 -249.352,406.129 -249.352,425.627 -250.52,425.627 	"/>
	<path d="M-235.335,416.553h-3.864l1.887-6.021L-235.335,416.553L-235.335,416.553z M-236.323,408.824h-1.708l-4.133,12.67h1.348
		l1.168-3.684h4.672l1.258,3.684h1.527L-236.323,408.824L-236.323,408.824z"/>
	<path d="M-221.498,415.834c0-1.438,1.078-2.876,2.695-2.876c1.618,0,2.606,1.349,2.516,2.876H-221.498L-221.498,415.834z
		 M-216.197,418.709c-0.449,1.078-1.348,1.797-2.516,1.797c-0.988,0-2.066-0.629-2.516-1.527c-0.359-0.629-0.359-1.348-0.359-2.065
		h6.829c0.09-2.606-1.168-5.033-4.043-5.033c-2.785,0-4.313,2.337-4.313,4.943c0,2.604,1.438,4.852,4.223,4.852
		c1.797,0,3.415-1.077,4.043-2.784L-216.197,418.709L-216.197,418.709z"/>
	<path d="M-211.345,413.677h0.09c0.45-0.987,1.618-1.798,2.875-1.798c1.168,0,2.065,0.45,2.694,1.438
		c0.449,0.81,0.359,2.066,0.359,2.967v5.211h-1.438v-5.842c0-0.538,0.09-1.168-0.18-1.707c-0.359-0.538-0.989-0.809-1.618-0.809
		c-0.809,0-1.438,0.359-1.977,0.898c-0.54,0.719-0.719,1.617-0.719,2.517v4.941h-1.437v-9.347h1.347v1.53H-211.345z"/>
	<path d="M-125.268,413.677L-125.268,413.677c0.449-0.987,1.617-1.798,2.875-1.798c1.168,0,2.065,0.45,2.694,1.438
		c0.449,0.81,0.449,2.066,0.449,2.967v5.211h-1.438v-5.842c0-0.538,0-1.168-0.27-1.707c-0.359-0.538-0.988-0.809-1.617-0.809
		c-0.719,0-1.438,0.359-1.887,0.898c-0.629,0.719-0.809,1.617-0.809,2.517v4.941h-1.438v-9.347h1.438v1.53H-125.268z"/>
	<polygon points="-197.059,406.129 -195.891,406.129 -195.891,425.627 -197.059,425.627 	"/>
	<polygon points="-179.628,421.494 -179.628,415.384 -185.468,415.384 -185.468,421.494 -186.904,421.494 -186.904,408.824 
		-185.468,408.824 -185.468,414.216 -179.628,414.216 -179.628,408.824 -178.102,408.824 -178.102,421.494 	"/>
	<path d="M-169.744,417.361c0,1.617-1.168,3.145-2.875,3.145c-1.168,0-2.066-0.449-2.066-1.617c0-1.887,2.066-2.156,3.773-2.156
		h1.168V417.361L-169.744,417.361z M-170.912,415.652c-1.168,0-2.516,0.091-3.504,0.541c-0.988,0.449-1.707,1.526-1.707,2.604
		c0,1.888,1.438,2.875,3.234,2.875c1.438,0,2.516-0.629,3.145-1.978l0.18,1.798h1.438c-0.181-0.629-0.271-1.349-0.271-1.978v-3.684
		c0-0.989,0-2.247-0.719-3.057s-1.797-0.898-2.785-0.898c-1.707,0-3.684,0.63-3.953,2.605l1.258,0.181
		c0.271-1.258,1.438-1.617,2.517-1.617c1.617,0,2.336,0.539,2.336,2.246v0.358h-1.169V415.652z"/>
	<path d="M-164.533,412.148v1.617l0,0c0.449-0.988,1.528-1.888,2.786-1.888c1.349,0,2.427,0.989,2.604,2.067
		c0.539-1.168,1.617-2.067,3.056-2.067c0.987,0,1.887,0.54,2.336,1.349c0.448,0.81,0.448,1.797,0.448,2.696v5.57h-1.438v-5.57
		c0-0.63,0-1.349-0.27-1.888c-0.271-0.629-0.898-0.988-1.527-0.988c-0.719,0-1.438,0.449-1.797,1.078
		c-0.539,0.719-0.539,1.438-0.539,2.337v5.031h-1.438v-5.931c0-0.539,0-1.168-0.271-1.617c-0.358-0.539-0.987-0.898-1.617-0.898
		c-0.629,0-1.258,0.449-1.708,0.898c-0.449,0.629-0.539,1.438-0.539,2.156v5.392h-1.438v-9.347h1.35V412.148z"/>
	<path d="M-150.695,412.148h1.438v9.346h-1.438V412.148L-150.695,412.148z M-150.786,408.824h1.618v1.617h-1.618V408.824
		L-150.786,408.824z"/>
	<polygon points="-146.293,408.824 -144.945,408.824 -144.945,421.494 -146.293,421.494 	"/>
	<polygon points="-230.753,408.824 -229.405,408.824 -229.405,421.494 -230.753,421.494 	"/>
	<polygon points="-226.44,408.824 -225.092,408.824 -225.092,421.494 -226.44,421.494 	"/>
	<path d="M-137.668,421.494l-1.348,0.18c-2.066,0-2.695-1.258-2.695-3.055v-5.393h-1.617v-1.168h1.617v-2.336l1.438-0.091v2.427
		h2.067v1.168h-2.067v5.571c0,1.078,0.359,1.707,1.528,1.707l1.077-0.09V421.494L-137.668,421.494z"/>
	<path d="M-135.331,416.732c0-0.81,0.09-1.709,0.449-2.338c0.358-0.809,1.168-1.348,2.065-1.348c0.898,0,1.617,0.449,2.066,1.078
		c0.539,0.809,0.629,1.708,0.629,2.605c0,0.81-0.09,1.617-0.449,2.427c-0.449,0.809-1.258,1.348-2.246,1.348
		c-0.809,0-1.617-0.448-1.977-1.168C-135.241,418.529-135.331,417.541-135.331,416.732L-135.331,416.732z M-136.948,416.732
		c0,2.426,1.259,4.94,4.044,4.94c2.875,0,4.313-2.336,4.313-4.94c0-2.428-1.348-4.854-4.043-4.854
		C-135.512,411.879-136.948,414.126-136.948,416.732L-136.948,416.732z"/>
</g>
</svg>
